<svg version="1.1" xmlns="http://www.w3.org/2000/svg" viewBox="0 0 2632.1493792915608 2246.3467437156896" width="2632.1493792915608" height="2246.3467437156896">
  <!-- svg-source:excalidraw -->
  
  <defs>
    <style>
      @font-face {
        font-family: "Virgil";
        src: url("https://excalidraw.com/Virgil.woff2");
      }
      @font-face {
        font-family: "Cascadia";
        src: url("https://excalidraw.com/Cascadia.woff2");
      }
    </style>
  </defs>
  <rect x="0" y="0" width="2632.1493792915608" height="2246.3467437156896" fill="#ffffff"></rect><g stroke-linecap="round" transform="translate(10 10) rotate(0 374.6623883928571 545.2678571428572)"><path d="M0.71 -0.42 C162.13 2.42, 325.56 2.55, 749.28 0.58 M-0.22 -0.11 C281.17 0.94, 561.57 0.32, 749.61 -0.05 M749.88 0.66 C751.52 381.44, 751.49 760.81, 749 1091.04 M749.64 -0.13 C747.16 332.38, 747.52 664.24, 749.13 1090.72 M749.32 1090.59 C552.96 1090.01, 354.99 1089.7, -0.21 1090.23 M749.16 1090.59 C512.27 1093.48, 274.79 1093.3, -0.15 1090.59 M-0.55 1090.28 C0.19 778.97, 1.29 467.66, 0.03 -0.19 M0.04 1090.32 C0.07 744.77, 0.12 398.79, 0.17 -0.23" stroke="#000000" stroke-width="1" fill="none"></path></g><g stroke-linecap="round" transform="translate(48.34263392857156 29.090401785714135) rotate(0 87.02287946428567 28.643973214285722)"><path d="M0.85 -1.17 C53.64 1.37, 109.24 -0.51, 175.31 0.17 M-0.03 0.08 C39.04 0.01, 79.17 0.24, 173.33 0.09 M173.45 -0.74 C174.54 21.05, 175.06 44.19, 175.64 55.5 M174.35 -0.95 C172.86 16.38, 173.36 31.72, 174.1 57.4 M174.52 58.05 C127.05 55.77, 78.08 56.03, -0.95 58.89 M174.64 56.38 C113.3 56.12, 52.48 55.47, 0.5 56.71 M0.52 55.45 C1.37 44.62, -0.25 30.42, 0.25 1.52 M0.72 56.38 C-0.27 40.71, 0.29 23.36, -0.83 0.97" stroke="#000000" stroke-width="1" fill="none"></path></g><g stroke-linecap="round" transform="translate(887.7717102858942 38.89241522074482) rotate(0 87.02287946428567 28.643973214285722)"><path d="M0.75 -1.24 C46.31 2.22, 89.91 0.45, 173.76 -0.14 M0.85 -0.38 C47.95 -1.13, 98 -1.12, 173.48 -0.22 M175.93 -1.63 C175.56 16.27, 175.56 33.89, 173.61 55.69 M174.46 -0.78 C174.68 20.69, 174.43 42.11, 174.18 57.1 M175.82 59 C108.84 58.54, 42.95 56.19, 0.66 56.31 M173.59 57.54 C137.76 57.11, 103.32 57.52, 0.75 56.4 M0.7 56.28 C0.89 45.53, 0.63 32.99, -1.35 -1.9 M-0.38 56.98 C-0.71 43.54, 0.02 29.59, -0.76 -0.66" stroke="#000000" stroke-width="1" fill="none"></path></g><g stroke-linecap="round" transform="translate(924.2315077363653 1177.6468607439633) rotate(0 87.02287946428567 28.643973214285722)"><path d="M0 -1.23 C62.61 0.13, 125.71 0.08, 174.3 0.28 M-0.26 0.86 C48.76 1.09, 98.52 0.56, 175.02 -0.28 M172.23 -0.95 C173.64 13.57, 175.07 30.91, 173.49 56.82 M173.08 0.35 C174.31 15.1, 173.8 32.36, 173.15 57.11 M172.06 55.42 C127.97 56.75, 76.94 58.93, 0.34 56.7 M174.16 58.2 C138.17 57, 102.93 56.19, 0.52 57.22 M-0.12 59.16 C0.54 35.34, 1.44 14.74, -0.53 0.16 M-0.61 56.7 C0.37 37.7, 0.97 19.97, -0.7 -0.03" stroke="#000000" stroke-width="1" fill="none"></path></g><g stroke-linecap="round" transform="translate(1958.1822213128867 1189.7988556739174) rotate(0 87.02287946428578 28.643973214285722)"><path d="M0.4 0.69 C46.63 -2.06, 90.24 -1.77, 175.9 1.43 M0.34 0.76 C55.34 1.81, 111.47 2.1, 174.97 0.24 M174.86 0 C173.64 13.8, 174.29 29.5, 174.54 58.32 M173.99 -0.94 C174.43 21.44, 175.22 43.22, 173.56 56.59 M175.32 57.53 C116.96 55.76, 58.71 56.42, 1.01 55.36 M174.06 57.55 C123.38 55.6, 70.92 55.06, -0.51 57.09 M-0.35 56.81 C-0.86 38.6, 1.54 22.1, -0.37 1.82 M-0.62 56.45 C-0.05 45.47, -1.3 32.27, 0.78 0.67" stroke="#000000" stroke-width="1" fill="none"></path></g><g stroke-linecap="round" transform="translate(255.90959821428578 33.967633928571274) rotate(0 56.082589285714334 17.5)"><path d="M-0.82 -0.56 C23.12 -0.2, 45.57 0.18, 111.32 0.48 M0.14 -0.26 C37.44 1.25, 76.3 1.33, 111.6 0.6 M110.5 -1.67 C113.04 6.17, 110.91 12.78, 113.82 35.52 M111.77 0.53 C112.43 8.04, 112.27 15.51, 112.48 35.72 M113.82 35.02 C87.04 37.37, 65.48 37.38, -1.84 34.89 M112.62 35.29 C73.98 34.54, 35.99 36.17, -0.48 35.33 M-0.98 33.62 C-0.42 19.77, -0.05 8.51, 0.9 -0.16 M-0.46 34.81 C1.14 23.95, 0.56 13.43, 0.97 0.39" stroke="#000000" stroke-width="1" fill="none"></path></g><g stroke-linecap="round" transform="translate(1095.3386745716084 43.76964736360196) rotate(0 56.082589285714334 17.5)"><path d="M-1.24 1.48 C32.18 -0.18, 61.31 -0.71, 112.03 -0.38 M-0.38 -0.98 C40.72 -0.81, 81 -1.51, 111.94 -0.16 M110.54 1.5 C112.01 12.12, 113.39 20.81, 110.56 36.48 M111.39 0.54 C111.1 11.33, 111.09 22.2, 111.98 35.73 M113.88 34.76 C72.06 34.81, 29.12 36.66, -0.97 33.11 M112.42 34.49 C67.33 35.32, 23.12 35.23, -0.89 34.15 M-1.01 36.33 C0.49 22.91, 0.24 7.34, -1.9 -1.07 M-0.31 34.63 C0.04 22.75, 0.2 9.03, -0.66 0.91" stroke="#000000" stroke-width="1" fill="none"></path></g><g stroke-linecap="round" transform="translate(1131.7984720220797 1182.5240928868207) rotate(0 56.082589285714334 17.5)"><path d="M-1.23 -0.89 C30.29 -1.31, 59.94 0.25, 112.45 -0.33 M0.86 -0.62 C42.46 0.05, 84.82 1.26, 111.89 -0.37 M111.22 -0.57 C110.44 12.36, 112.7 22.43, 111.7 34.53 M112.51 0.36 C111.41 9.78, 112.84 18.97, 111.99 34.76 M110.29 36.93 C71.68 32.78, 33.92 34.22, -0.58 33.08 M113.08 34.62 C69.59 35.02, 25.94 35.65, -0.07 35.68 M1.88 35.72 C-0.7 25.02, -0.2 11.29, 0.16 0.59 M-0.59 34.95 C-0.66 27.6, 0.47 18.39, -0.03 -0.64" stroke="#000000" stroke-width="1" fill="none"></path></g><g stroke-linecap="round" transform="translate(2165.7491855986013 1194.6760878167745) rotate(0 56.08258928571422 17.5)"><path d="M0.69 1.6 C43.05 -0.03, 88.14 1.63, 113.6 0.37 M0.76 -0.08 C35.62 0.25, 70.92 0.54, 112.41 -0.53 M112.17 -0.61 C112.05 11.75, 113.61 23.89, 113.19 36.53 M111.22 -0.14 C112.05 14.41, 112.25 27.04, 111.47 35.37 M112.41 36.5 C81.02 37.54, 50.86 36.72, -1.93 34.88 M112.43 35.48 C77.79 34.17, 43.14 34.51, -0.2 35.11 M-0.48 34.57 C-0.98 23.81, 0.36 8.3, 1.82 -1.58 M-0.84 35.49 C1.13 20.45, 0.58 8.22, 0.67 -0.01" stroke="#000000" stroke-width="1" fill="none"></path></g><g stroke-linecap="round" transform="translate(410.987723214286 36.61830357142841) rotate(0 56.082589285714334 17.5)"><path d="M-0.98 -1.38 C43.27 -1.99, 87.13 0.32, 113.06 -0.16 M-0.46 -0.19 C33.96 -1.36, 66.45 -1.55, 113.14 0.39 M113.08 1.14 C110.72 10.36, 113.71 20.8, 113.85 34.53 M111.84 -0.84 C112.02 9.44, 112.35 16.5, 111.21 35.64 M113.56 35.49 C68.99 34.05, 25.81 35.49, -1.05 36.04 M112.26 34.24 C73.07 34.12, 35.01 34.51, -0.92 34.14 M1.14 35.49 C-0.42 24.48, 0.47 14.44, 0.68 -1.66 M-0.98 34.2 C0.47 24.35, -0.37 14.22, -0.14 -0.27" stroke="#000000" stroke-width="1" fill="none"></path></g><g stroke-linecap="round" transform="translate(1250.4167995716084 46.4203170064591) rotate(0 56.082589285714334 17.5)"><path d="M1.48 1.28 C27.83 0.21, 54.88 0.56, 111.79 1.18 M-0.98 0.45 C43.99 0.9, 87.14 0.21, 112 0.03 M113.66 0.03 C113.99 10.06, 112.06 15.7, 113.65 35.3 M112.71 -0.74 C112.61 6.46, 112.45 14.24, 112.9 35.62 M111.92 35.47 C72.3 34.08, 35.47 34.99, -1.89 36.95 M111.66 34.77 C79.01 35.47, 44.93 34.4, -0.85 35.76 M1.33 35.53 C0.94 24.35, -1.47 11.22, -1.07 1.2 M-0.37 35.36 C0.49 21.82, -0.63 6.93, 0.91 0.01" stroke="#000000" stroke-width="1" fill="none"></path></g><g stroke-linecap="round" transform="translate(1286.8765970220797 1185.1747625296775) rotate(0 56.082589285714334 17.5)"><path d="M-0.89 0.58 C35.2 1.21, 73.26 0.97, 111.84 1.65 M-0.62 -0.42 C23.65 -1.92, 48.75 -1.24, 111.8 0.28 M111.59 -1.52 C112.71 9.18, 111.29 16.42, 111.69 34.68 M112.52 -0.74 C111.68 10.99, 110.93 20.43, 111.92 35.56 M114.1 34.46 C77.4 35.59, 45.18 33.37, -1.92 36.64 M111.79 35.26 C81.98 35.48, 52.54 35.96, 0.68 35.31 M0.72 34.15 C1.64 25.65, -0.51 17.15, 0.59 -1.46 M-0.05 34.28 C0.76 25.5, -0.49 15.15, -0.64 0.82" stroke="#000000" stroke-width="1" fill="none"></path></g><g stroke-linecap="round" transform="translate(2320.8273105986013 1197.3267574596316) rotate(0 56.08258928571422 17.5)"><path d="M1.6 -1.75 C35.83 -1.85, 73.12 1.05, 112.53 0.24 M-0.08 0.6 C26.44 0.03, 52.55 -0.61, 111.63 0.34 M111.56 -0.34 C112.36 13.95, 112.8 26.49, 113.7 36.86 M112.02 -0.13 C112.79 10.71, 111.66 20.56, 112.53 34.75 M113.66 34.69 C88.2 35.49, 61.59 33.21, -0.12 35.08 M112.64 34.73 C86.79 34.48, 62.6 35.09, 0.11 35.76 M-0.43 34.15 C2.04 23.74, -0.31 13.33, -1.58 1.87 M0.49 35.83 C-0.55 27.76, 1 20.64, -0.01 0.73" stroke="#000000" stroke-width="1" fill="none"></path></g><g stroke-linecap="round" transform="translate(565.2901785714287 33.71093749999986) rotate(0 56.5 17.5)"><path d="M-0.21 -1.66 C37.37 1.43, 75.33 0.62, 112.9 -1.39 M0.89 -0.73 C40.51 -0.71, 81.36 0.61, 112.73 -0.07 M111.58 0.79 C114.73 14.53, 114.85 25.25, 111.84 34.56 M112.93 0.97 C113.14 6.6, 111.93 14.72, 113.9 35.92 M113.59 33.9 C78.78 35.62, 41.19 36.31, 0.9 34.64 M112.58 35.22 C90.42 34.76, 66.53 33.27, 0.07 34.02 M-0.76 35.23 C-0.07 28.2, 0.48 17.86, -0.15 -0.46 M0.39 34.59 C-0.11 24.71, 0.2 14.75, -0.11 -0.04" stroke="#000000" stroke-width="1" fill="none"></path></g><g stroke-linecap="round" transform="translate(1404.7192549287515 43.512950935030545) rotate(0 56.5 17.5)"><path d="M1.28 0.25 C37.65 -1.12, 76.15 -1.21, 114.18 1.82 M0.45 0.14 C43.92 0.54, 86.69 0.94, 113.03 -0.53 M113.03 1.49 C114.12 13.36, 111.11 29.08, 113.3 33.12 M112.26 0.3 C111.98 12.09, 112.54 24.63, 113.62 35.45 M113.47 33.82 C67.22 35.53, 24.22 32.97, 1.95 35.06 M112.77 35.83 C84.47 35.18, 54.69 33.57, 0.76 35.13 M0.53 36.06 C0.46 21.93, -1.72 10.49, 1.2 1.83 M0.36 35.36 C0.63 25.07, -0.55 17.57, 0.01 0.7" stroke="#000000" stroke-width="1" fill="none"></path></g><g stroke-linecap="round" transform="translate(1441.1790523792229 1182.267396458249) rotate(0 56.5 17.5)"><path d="M0.58 -1.31 C34.43 0.76, 68.1 0.18, 114.65 -1.74 M-0.42 -0.24 C30.02 1.68, 61.68 0.34, 113.28 -0.59 M111.48 0.87 C113.57 6.76, 112.37 14.16, 112.68 34.89 M112.26 -0.15 C113.81 6.23, 112.95 14, 113.56 35 M112.46 33.9 C91.97 36.43, 67.08 34.17, 1.64 34.36 M113.26 34.89 C77.21 35.09, 42.44 35.25, 0.31 34.57 M-0.85 36.62 C-0.68 24.18, -0.17 15, -1.46 -0.34 M-0.72 35.55 C0.62 25.94, 0.18 17.65, 0.82 -0.53" stroke="#000000" stroke-width="1" fill="none"></path></g><g stroke-linecap="round" transform="translate(2475.1297659557445 1194.4193913882032) rotate(0 56.5 17.5)"><path d="M-1.75 0.19 C34.68 0.95, 73.72 -0.54, 113.24 -1.4 M0.6 0.63 C38.6 1.01, 75.68 -0.44, 113.34 0.64 M112.66 0.05 C114.22 12.42, 114.03 25.38, 114.86 35.07 M112.87 0.65 C112.75 9.84, 111.98 21.01, 112.75 34.3 M112.69 36.83 C72.27 36.85, 28.9 35.72, 0.08 33.37 M112.73 34.16 C78.15 35.03, 44.72 35.65, 0.76 35.36 M-0.85 36.97 C0.56 24.74, 1.9 13.63, 1.87 -1.71 M0.83 34.23 C0.57 27.46, 0.96 18.36, 0.73 0.95" stroke="#000000" stroke-width="1" fill="none"></path></g><g transform="translate(273.9921875000001 38.967633928571274) rotate(0 38 12.5)"><text x="38" y="18" font-family="Virgil, Segoe UI Emoji" font-size="20px" fill="#000000" text-anchor="middle" style="white-space: pre;" direction="ltr">Cinemas</text></g><g transform="translate(1113.4212638573226 48.76964736360196) rotate(0 38 12.5)"><text x="38" y="18" font-family="Virgil, Segoe UI Emoji" font-size="20px" fill="#000000" text-anchor="middle" style="white-space: pre;" direction="ltr">Cinemas</text></g><g transform="translate(1149.8810613077935 1187.5240928868204) rotate(0 38 12.5)"><text x="38" y="18" font-family="Virgil, Segoe UI Emoji" font-size="20px" fill="#000000" text-anchor="middle" style="white-space: pre;" direction="ltr">Cinemas</text></g><g transform="translate(2183.831774884315 1199.6760878167745) rotate(0 38 12.5)"><text x="38" y="18" font-family="Virgil, Segoe UI Emoji" font-size="20px" fill="#000000" text-anchor="middle" style="white-space: pre;" direction="ltr">Cinemas</text></g><g transform="translate(434.57031250000034 41.61830357142841) rotate(0 32.50000000000006 12.5)"><text x="32.5" y="18" font-family="Virgil, Segoe UI Emoji" font-size="20px" fill="#000000" text-anchor="middle" style="white-space: pre;" direction="ltr">Movies</text></g><g transform="translate(1273.999388857323 51.4203170064591) rotate(0 32.5 12.5)"><text x="32.5" y="18" font-family="Virgil, Segoe UI Emoji" font-size="20px" fill="#000000" text-anchor="middle" style="white-space: pre;" direction="ltr">Movies</text></g><g transform="translate(1310.4591863077944 1190.1747625296773) rotate(0 32.5 12.5)"><text x="32.5" y="18" font-family="Virgil, Segoe UI Emoji" font-size="20px" fill="#000000" text-anchor="middle" style="white-space: pre;" direction="ltr">Movies</text></g><g transform="translate(2344.409899884316 1202.3267574596316) rotate(0 32.5 12.5)"><text x="32.5" y="18" font-family="Virgil, Segoe UI Emoji" font-size="20px" fill="#000000" text-anchor="middle" style="white-space: pre;" direction="ltr">Movies</text></g><g transform="translate(569.8727678571429 38.71093749999986) rotate(0 51.5 12.5)"><text x="51.5" y="18" font-family="Virgil, Segoe UI Emoji" font-size="20px" fill="#000000" text-anchor="middle" style="white-space: pre;" direction="ltr">Customers</text></g><g transform="translate(1409.3018442144657 48.512950935030545) rotate(0 51.5 12.5)"><text x="51.5" y="18" font-family="Virgil, Segoe UI Emoji" font-size="20px" fill="#000000" text-anchor="middle" style="white-space: pre;" direction="ltr">Customers</text></g><g transform="translate(1445.7616416649366 1187.2673964582489) rotate(0 51.5 12.5)"><text x="51.5" y="18" font-family="Virgil, Segoe UI Emoji" font-size="20px" fill="#000000" text-anchor="middle" style="white-space: pre;" direction="ltr">Customers</text></g><g transform="translate(2479.712355241458 1199.4193913882032) rotate(0 51.5 12.5)"><text x="51.5" y="18" font-family="Virgil, Segoe UI Emoji" font-size="20px" fill="#000000" text-anchor="middle" style="white-space: pre;" direction="ltr">Customers</text></g><g transform="translate(86.03236607142844 44.18080357142844) rotate(0 55.5 12.5)"><text x="0" y="18" font-family="Virgil, Segoe UI Emoji" font-size="20px" fill="#000000" text-anchor="start" style="white-space: pre;" direction="ltr">BrightChain</text></g><g transform="translate(925.4614424287511 53.98281700645913) rotate(0 55.5 12.5)"><text x="0" y="18" font-family="Virgil, Segoe UI Emoji" font-size="20px" fill="#000000" text-anchor="start" style="white-space: pre;" direction="ltr">BrightChain</text></g><g transform="translate(961.9212398792222 1192.7372625296773) rotate(0 55.5 12.5)"><text x="0" y="18" font-family="Virgil, Segoe UI Emoji" font-size="20px" fill="#000000" text-anchor="start" style="white-space: pre;" direction="ltr">BrightChain</text></g><g transform="translate(1995.8719534557436 1204.8892574596316) rotate(0 55.5 12.5)"><text x="0" y="18" font-family="Virgil, Segoe UI Emoji" font-size="20px" fill="#000000" text-anchor="start" style="white-space: pre;" direction="ltr">BrightChain</text></g><g stroke-linecap="round"><g transform="translate(701.5792410714284 239.681919642857) rotate(0 4.008679647956569 8.41814762695624)"><path d="M-0.41 0.12 C1.1 2.93, 6.83 14.99, 8.43 17.7 M1.57 -0.86 C2.96 1.51, 6.13 12.78, 7.31 15.79" stroke="#000000" stroke-width="1" fill="none"></path></g></g><g stroke-linecap="round"><g transform="translate(714.8939732142856 253.28124999999983) rotate(0 -6.290289090851161 6.460819236169186)"><path d="M1.15 0.81 C-1.11 2.76, -10.65 9.76, -13.03 11.82 M0.3 0.2 C-2.12 2.23, -11.39 10.34, -13.73 12.72" stroke="#000000" stroke-width="1" fill="none"></path></g></g><g stroke-linecap="round" transform="translate(67.58928571428578 477.17633928571405) rotate(0 80.5859375 99.40569196428567)"><path d="M0.8 -1.33 C50.06 -2.83, 100.07 -2.1, 161.32 -1.03 M-0.05 -0.96 C52.53 1.26, 103.96 0.7, 161.67 0.12 M162.16 -0.84 C158.78 73.89, 160.23 144.29, 159.5 199.02 M162.06 -0.59 C159.27 59.78, 160.1 118.62, 160.87 198.3 M163 197.64 C109.17 200.95, 54 198.5, -1.9 198.35 M161.74 198.41 C118.08 199.56, 75.27 198.84, -0.73 198.55 M0.57 200.73 C0.54 159.79, -0.99 120.15, -1.96 1.37 M0.42 197.87 C0.88 129.85, 2.39 59.27, 0.22 0" stroke="#000000" stroke-width="1" fill="none"></path></g><g stroke-linecap="round" transform="translate(284.793526785714 483.16406249999994) rotate(0 80.5859375 99.40569196428567)"><path d="M-0.7 -1.58 C60.66 2.09, 124.88 -0.68, 160.34 0.15 M0.83 0.69 C47.63 -2.31, 95 -1.02, 161.03 -0.88 M159.4 0.4 C160.21 54.28, 161.18 109.69, 162.44 200.55 M160.8 0.95 C162.33 54.01, 163.26 109.1, 161.34 197.84 M160.84 198.05 C100.14 197.81, 43.29 197.64, -0.37 198.62 M160.41 198.73 C109.81 199.79, 60.08 198.46, -0.82 199.26 M0.95 198.17 C-0.28 146.31, -0.36 92.95, -1.23 -1.87 M0.82 198.76 C-0.31 134.74, 0.4 70.72, 0.23 0.28" stroke="#000000" stroke-width="1" fill="none"></path></g><g stroke-linecap="round" transform="translate(501.0100446428571 479.55915178571416) rotate(0 80.5859375 99.40569196428567)"><path d="M-1.58 -0.81 C58.2 2.49, 112.05 -0.27, 161.32 -0.05 M0.69 -0.32 C53 -2.23, 108.21 -1.48, 160.29 -0.28 M161.57 -0.07 C161.53 51.63, 162.96 102.72, 162.91 198.34 M162.12 -0.33 C159.83 75.14, 159.93 149.25, 160.2 199.51 M160.41 197.42 C101.22 199.94, 41.36 198.17, -0.19 199.09 M161.09 198.07 C107.61 197.73, 52.35 196.76, 0.44 198.51 M-0.64 198.09 C1.97 142.69, 2.19 86.93, -1.87 0.43 M-0.06 198.31 C1.76 141.27, 1.63 83.54, 0.28 0.42" stroke="#000000" stroke-width="1" fill="none"></path></g><g stroke-linecap="round" transform="translate(68.00223214285711 690.3348214285711) rotate(0 79.43917410714289 24.96093750000003)"><path d="M0.85 -0.53 C60.22 1.19, 121.21 0.11, 158.89 -1.57 M-0.18 0.82 C58.03 -1.97, 115.79 -1.77, 159.22 -0.34 M158.09 -0.14 C160.56 17.72, 158.68 35.02, 156.9 49.31 M159.8 0.3 C158.04 17.32, 159.9 33.17, 159.21 49.48 M159.13 50.2 C125.42 51.28, 86.89 51.35, 1.26 49.64 M158.56 49.78 C100.03 52.14, 38.56 52.37, 0.24 49.65 M-1.17 50.01 C1.53 36.17, 0.71 21.16, 0.75 1.15 M-0.76 49.52 C0.99 35.59, 1.4 19.74, 0.86 -0.66" stroke="#000000" stroke-width="1" fill="none"></path></g><g stroke-linecap="round" transform="translate(289.26897321428555 696.6071428571427) rotate(0 84.12946428571422 24.12109375000003)"><path d="M-0.88 -1.57 C66.23 -0.59, 131.9 -0.29, 170.01 1.38 M-0.14 0.76 C38.23 -0.09, 74.6 -1.21, 169.11 0.67 M167.72 -0.55 C167.77 12.02, 167.53 20.15, 169.56 48.09 M168.83 -0.04 C167.05 15.73, 167.13 30.86, 168.83 48.7 M166.94 47.45 C102.94 50.08, 33.81 48.98, 1.66 47.27 M168.75 48.98 C109.86 46.28, 51.11 46.51, -0.93 47.93 M0.05 46.97 C1.93 36.4, -0.84 22.05, -1.76 -1.72 M-0.43 47.61 C-0.22 34.72, 1.14 19.82, -0.04 -0.29" stroke="#000000" stroke-width="1" fill="none"></path></g><g stroke-linecap="round" transform="translate(504.1015624999998 690.7589285714284) rotate(0 79.49497767857144 21.821986607142804)"><path d="M0.98 1.47 C55.04 -0.09, 109.37 0.38, 157.13 -0.63 M0.02 -0.64 C46.3 2.08, 90.45 1.81, 158.11 -0.86 M158.13 -1.27 C157.66 14.66, 160.38 26.56, 158.92 43.06 M159.35 -0.2 C159.39 13.64, 159 28.51, 159.67 43.91 M160.13 43.81 C113.47 44.63, 68.73 42.66, -1.64 44.34 M159.37 43.15 C121.75 45.12, 82.13 45.14, 0.63 43.32 M1.06 42.82 C0.26 30.84, -0.36 12.72, 0.88 0.75 M0.09 44.03 C0.47 26.15, 1.13 8.16, 0.52 0.92" stroke="#000000" stroke-width="1" fill="none"></path></g><g transform="translate(92.25253998880805 161.65358248829602) rotate(0 313.50000000000006 91.5)"><text x="0" y="43" font-family="Virgil, Segoe UI Emoji" font-size="48.58609219653199px" fill="#000000" text-anchor="start" style="white-space: pre;" direction="ltr">Welcome to the </text><text x="0" y="104" font-family="Virgil, Segoe UI Emoji" font-size="48.58609219653199px" fill="#000000" text-anchor="start" style="white-space: pre;" direction="ltr">Not Cineworld Management</text><text x="0" y="165" font-family="Virgil, Segoe UI Emoji" font-size="48.58609219653199px" fill="#000000" text-anchor="start" style="white-space: pre;" direction="ltr"> System </text></g><g transform="translate(65.37946428571422 442.72433035714283) rotate(0 78.5 12.5)"><text x="0" y="18" font-family="Virgil, Segoe UI Emoji" font-size="20px" fill="#000000" text-anchor="start" style="white-space: pre;" direction="ltr">Upcoming Movies</text></g><g stroke-linecap="round" transform="translate(45.27343749999977 997.8180803571428) rotate(0 346.69642857142856 34.6651785714285)"><path d="M0.04 0.78 C209.16 -2.41, 417.89 -1.73, 693.36 -0.45 M-0.3 0.29 C228.41 0.11, 456.24 0.15, 693.28 0.07 M694.75 -1.96 C691.91 21.22, 693.97 37.23, 693.71 67.87 M694.35 -0.07 C693.49 23.18, 693.75 45.64, 694.29 70.14 M692.95 68.64 C433.26 68.62, 173.19 68.64, -0.6 68.62 M693.32 69.68 C481.98 71.18, 270.31 71.31, 0.33 69.13 M-1.22 68.94 C0.92 47.15, 1.68 26.64, 0.91 -0.05 M-0.89 69.72 C-0.6 53.39, -0.39 37.35, 0.86 0.33" stroke="#000000" stroke-width="1" fill="none"></path></g><g transform="translate(297.15401785714266 994.8113839285711) rotate(0 101 37.5)"><text x="0" y="18" font-family="Virgil, Segoe UI Emoji" font-size="20px" fill="#000000" text-anchor="start" style="white-space: pre;" direction="ltr">Contact Information</text><text x="0" y="43" font-family="Virgil, Segoe UI Emoji" font-size="20px" fill="#000000" text-anchor="start" style="white-space: pre;" direction="ltr">   Copyright Info </text><text x="0" y="68" font-family="Virgil, Segoe UI Emoji" font-size="20px" fill="#000000" text-anchor="start" style="white-space: pre;" direction="ltr">        etc</text></g><g stroke-linecap="round" transform="translate(471.7801339285711 871.1160714285712) rotate(0 107.29631696428578 48.25334821428572)"><path d="M-0.4 1.39 C80.05 -0.49, 159.73 -0.98, 216.21 1.3 M-0.53 0.34 C69.17 -0.88, 138.53 -1.15, 215.15 -0.24 M215 -0.78 C215.05 34.71, 214.84 65.19, 215.92 95.32 M214.65 0.22 C215.71 33.91, 214.1 66.98, 215.36 96.75 M215.93 94.98 C143.41 96.36, 68.92 95.61, 0.57 96.81 M214.11 96.91 C150.74 98.36, 85.7 97.25, 0.09 97.27 M1.57 95.29 C-0.45 64.01, -2.27 33.06, -0.38 -0.47 M-0.42 96.6 C-0.03 61.61, -0.3 26.77, -0.17 0.17" stroke="#000000" stroke-width="1" fill="none"></path></g><g transform="translate(83.24776785714266 820.4252232142854) rotate(0 104.5 12.5)"><text x="0" y="18" font-family="Virgil, Segoe UI Emoji" font-size="20px" fill="#000000" text-anchor="start" style="white-space: pre;" direction="ltr">Cinema Of the Month</text></g><g stroke-linecap="round"><g transform="translate(489.6819196428569 892.000034877232) rotate(0 84.95319986155994 26.763865571437805)"><path d="M-0.09 0.31 C28.58 9.34, 143.06 45.38, 171.5 54.1 M-1.6 -0.58 C27.06 8.14, 142.58 43.48, 171.16 52.54" stroke="#000000" stroke-width="1" fill="none"></path></g></g><g stroke-linecap="round"><g transform="translate(642.4553571428571 892.5580705915177) rotate(0 -74.04628630142201 32.19069884818646)"><path d="M0.9 -0.39 C-23.75 10.79, -123.69 55.07, -148.62 66.01 M-0.09 -1.63 C-24.74 9.33, -124.18 53.69, -148.99 64.49" stroke="#000000" stroke-width="1" fill="none"></path></g></g><g stroke-linecap="round"><g transform="translate(72.84040178571422 882.9821777343748) rotate(0 123.55520379764636 0.10089037696229752)"><path d="M0.56 -1.19 C41.69 -1.12, 206.88 -0.24, 247.72 0.08 M-0.61 0.8 C40.37 1.06, 205.86 1.16, 247.28 1.39" stroke="#000000" stroke-width="1" fill="none"></path></g></g><g stroke-linecap="round"><g transform="translate(79.87723214285711 900.1417759486604) rotate(0 123.40740789709292 0.17363446734617582)"><path d="M0.51 0.89 C41.81 0.95, 206.41 -0.44, 247.5 -0.55 M-0.68 0.32 C40.55 0.57, 205.76 0.25, 246.94 0.43" stroke="#000000" stroke-width="1" fill="none"></path></g></g><g stroke-linecap="round"><g transform="translate(83.62165178571422 914.0424455915175) rotate(0 123.87447680832958 -0.23237184542995237)"><path d="M0.89 0.74 C41.99 0.79, 204.76 0.79, 245.69 0.79 M-0.1 0.09 C41.44 -0.29, 206.9 -1.53, 247.85 -1.19" stroke="#000000" stroke-width="1" fill="none"></path></g></g><g stroke-linecap="round"><g transform="translate(90.32924107142844 931.8716866629462) rotate(0 123.35040385303694 0.289266806266653)"><path d="M0.74 -1.06 C41.83 -1.17, 205.99 0.02, 247.02 0.25 M-0.32 1 C40.58 0.99, 205.12 1.55, 246.22 1.65" stroke="#000000" stroke-width="1" fill="none"></path></g></g><g stroke-linecap="round" transform="translate(855.5335829775449 32.56446358696854) rotate(0 388.9008276025004 540.4492188267222)"><path d="M0.12 -0.71 C195.89 -2.21, 390.43 -3.29, 778.06 0.22 M-0.26 -0.32 C308 1.84, 616.74 1.17, 778.01 -0.18 M777.81 -0.44 C780.09 263.07, 779.34 525.4, 778.45 1081.57 M777.75 0.18 C775.06 367.92, 775.33 736.43, 777.94 1080.75 M777.69 1081.61 C505.36 1082.29, 231.7 1081.88, 0.39 1081.31 M777.69 1080.54 C589.46 1083.06, 401.96 1082.91, 0.08 1080.84 M0.71 1081.1 C-3.74 720.07, -3.3 360.6, -0.26 -0.24 M-0.18 1080.97 C-0.03 783.2, -0.32 486.55, -0.09 -0.22" stroke="#000000" stroke-width="1" fill="none"></path></g><g stroke-linecap="round" transform="translate(876.4399239126385 1155.4483060622454) rotate(0 388.9008276025005 540.4492188267222)"><path d="M-0.72 0.61 C163.85 0.52, 328.14 -0.01, 777.21 0.54 M-0.24 0.15 C267.24 1.09, 534.34 1.57, 778 -0.15 M777.7 0.32 C780 351.47, 779.9 701.42, 777.34 1081.22 M778.12 0.39 C776.16 323.61, 775.97 647.01, 778 1080.76 M777.22 1080.4 C514.28 1078.46, 251.66 1079.47, 0.66 1080.11 M777.67 1081.08 C622.16 1082.71, 466.17 1082.19, 0.09 1081.21 M0.34 1080.52 C1.03 737.45, 1 395.22, -0.2 -0.02 M-0.11 1080.83 C-3.03 848.59, -2.55 615.63, 0.19 0.06" stroke="#000000" stroke-width="1" fill="none"></path></g><g stroke-linecap="round" transform="translate(1844.34772408656 1134.8700403568164) rotate(0 388.9008276025004 540.4492188267222)"><path d="M0.15 0.1 C175.78 -1.96, 353.3 -2.29, 778.28 0.5 M-0.21 0.14 C302.18 -0.58, 603.86 -0.87, 777.73 0.01 M778.41 0.75 C778.89 390.08, 778.11 780.13, 777.7 1081.41 M777.95 -0.1 C775.43 332.84, 775.76 665.47, 777.74 1081.26 M777.75 1080.93 C530.05 1077.91, 283.81 1078.28, -0.22 1080.23 M777.85 1081.2 C607.86 1080.2, 437.53 1080.18, -0.17 1081.29 M-0.63 1081.65 C0.12 730.16, 0.13 380.8, 0.66 -0.61 M0 1081.19 C-2.99 726.35, -3.2 372.21, -0.25 -0.09" stroke="#000000" stroke-width="1" fill="none"></path></g><g transform="translate(901.2955664692306 127.78879966459863) rotate(0 109.5 17.5)"><text x="0" y="25" font-family="Virgil, Segoe UI Emoji" font-size="27.678710935770496px" fill="#000000" text-anchor="start" style="white-space: pre;" direction="ltr">Manage Cinemas</text></g><g transform="translate(886.2723459193576 225.98617615808786) rotate(0 72 12.5)"><text x="0" y="18" font-family="Virgil, Segoe UI Emoji" font-size="20px" fill="#000000" text-anchor="start" style="white-space: pre;" direction="ltr">Create Cinema</text></g><g stroke-linecap="round"><g transform="translate(901.1450966798541 270.56040215177745) rotate(0 90.08287341110042 1.8974279830167688)"><path d="M-0.59 -0.19 C29.08 0.61, 148.39 4.31, 178.48 5.13 M1.3 -1.34 C31.3 -0.94, 151.05 1.91, 180.76 3.14" stroke="#000000" stroke-width="1" fill="none"></path></g></g><g stroke-linecap="round"><g transform="translate(940.7975461682624 744.8787409841764) rotate(0 90.06605703931405 2.0636063453862903)"><path d="M0.76 -0.31 C30.48 0.62, 148.68 4.77, 178.27 5.64 M-0.31 -1.51 C29.78 -0.94, 150.27 2.61, 180.44 3.91" stroke="#000000" stroke-width="1" fill="none"></path></g></g><g stroke-linecap="round"><g transform="translate(1451.1401221423325 1657.4278620961582) rotate(0 65.41266983266962 1.692783052131972)"><path d="M0.88 0.27 C22.62 0.86, 109.2 2.42, 130.94 2.86 M-0.12 -0.64 C21.41 0.16, 108.12 3.27, 129.92 4.02" stroke="#000000" stroke-width="1" fill="none"></path></g></g><g stroke-linecap="round"><g transform="translate(1979.692174226269 1467.3563155116944) rotate(0 65.30178451887832 2.1386214449186127)"><path d="M-0.47 0.37 C21.47 0.82, 109.07 2.75, 131.08 3.34 M1.48 -0.47 C23.31 0.1, 108.54 3.78, 130.13 4.75" stroke="#000000" stroke-width="1" fill="none"></path></g></g><g stroke-linecap="round"><g transform="translate(1225.3335723282487 1659.4229918423935) rotate(0 65.12126558027728 2.1572648487216384)"><path d="M-0.91 0.97 C21.08 1.51, 109.34 3.57, 131.15 3.88 M0.81 0.43 C22.72 0.54, 108.33 1.37, 130.25 1.93" stroke="#000000" stroke-width="1" fill="none"></path></g></g><g stroke-linecap="round"><g transform="translate(987.1539031703078 1654.6254583894215) rotate(0 65.21209576603064 1.2324095408175708)"><path d="M0.21 -0.11 C22.33 0.28, 109.63 1.84, 131.56 2.63 M-1.13 -1.21 C20.96 -0.72, 108.77 3, 130.86 3.68" stroke="#000000" stroke-width="1" fill="none"></path></g></g><g stroke-linecap="round"><g transform="translate(1334.9324402740808 721.991564442074) rotate(0 84.19193693073703 2.027176144098604)"><path d="M0.25 -0.29 C28.29 0.4, 141.46 3.68, 169.47 4.46 M-1.08 -1.49 C26.73 -0.69, 140.03 4.42, 168.67 5.55" stroke="#000000" stroke-width="1" fill="none"></path></g></g><g stroke-linecap="round"><g transform="translate(1167.0822987489032 942.3991486929134) rotate(0 83.96506948111346 2.727164698335116)"><path d="M-0.95 -0.9 C27.09 -0.08, 140.51 3.98, 168.88 4.99 M0.75 1.25 C28.56 2.23, 139.81 5.5, 167.77 6.35" stroke="#000000" stroke-width="1" fill="none"></path></g></g><g stroke-linecap="round"><g transform="translate(1259.543446111632 263.725787021324) rotate(0 90.35288400363277 2.6744748643674576)"><path d="M0.88 0.81 C30.79 1.46, 148.6 3.39, 178.53 4.06 M-0.12 0.19 C30.25 0.96, 150.76 4.17, 180.82 5.16" stroke="#000000" stroke-width="1" fill="none"></path></g></g><g stroke-linecap="round"><g transform="translate(1292.883811528971 481.8308951507847) rotate(0 89.5902338922732 1.5727134812511991)"><path d="M0.71 -0.45 C30.73 0.02, 149.69 2.9, 179.55 3.87 M-0.37 -1.73 C29.55 -0.63, 148.76 4.04, 178.72 4.87" stroke="#000000" stroke-width="1" fill="none"></path></g></g><g stroke-linecap="round"><g transform="translate(900.0759692290196 291.68160890270576) rotate(0 92.03719941893553 0.9104495736157077)"><path d="M-0.4 0.94 C30.44 1.17, 153.68 1.95, 184.47 1.83 M1.59 0.39 C32.4 0.21, 153.59 -0.11, 183.99 -0.01" stroke="#000000" stroke-width="1" fill="none"></path></g></g><g stroke-linecap="round"><g transform="translate(939.728418717428 765.9999477351047) rotate(0 92.0151374987696 0.14852742325257395)"><path d="M-0.31 -1.04 C30.4 -1.12, 153.68 -0.09, 184.34 0.32 M1.73 1.02 C32.34 1, 153.59 1.06, 183.78 1.34" stroke="#000000" stroke-width="1" fill="none"></path></g></g><g stroke-linecap="round"><g transform="translate(1450.3586147189314 1672.8669754162343) rotate(0 67.38499246851177 -0.08925255127019227)"><path d="M0.27 -0.13 C22.63 -0.08, 111.27 0.87, 133.48 1.2 M-1.05 -1.25 C21.77 -1.66, 113.57 -0.99, 135.82 -0.79" stroke="#000000" stroke-width="1" fill="none"></path></g></g><g stroke-linecap="round"><g transform="translate(1978.9106668028676 1482.79542883177) rotate(0 66.53632274018696 0.18417027503505778)"><path d="M0.37 0 C22.59 0.31, 111.6 1.37, 133.96 1.41 M-0.89 -1.04 C21.09 -1.05, 110.42 -0.84, 132.89 -0.46" stroke="#000000" stroke-width="1" fill="none"></path></g></g><g stroke-linecap="round"><g transform="translate(1224.5520649048476 1674.862105162469) rotate(0 67.26220962252557 -0.04468882364642468)"><path d="M0.97 0.08 C23.28 0.21, 112.43 -0.21, 134.51 -0.13 M0.02 -0.93 C22.15 -0.61, 111.07 0.41, 133.72 0.84" stroke="#000000" stroke-width="1" fill="none"></path></g></g><g stroke-linecap="round"><g transform="translate(986.3723957469067 1670.0645717094972) rotate(0 66.92461895719725 0.6670473548209657)"><path d="M-0.11 0.48 C22.05 0.73, 110.7 1.42, 133.26 1.67 M-1.63 -0.31 C20.88 -0.43, 112.7 -0.15, 135.48 -0.07" stroke="#000000" stroke-width="1" fill="none"></path></g></g><g stroke-linecap="round"><g transform="translate(1323.726572751075 743.5429245287556) rotate(0 92.34749470724216 0.4447223846734687)"><path d="M-0.29 0.29 C30.11 0.31, 152.23 0.11, 182.73 0.42 M1.75 -0.61 C32.51 -0.47, 154.43 1.36, 184.99 1.5" stroke="#000000" stroke-width="1" fill="none"></path></g></g><g stroke-linecap="round"><g transform="translate(1155.8764312258975 963.9505087795951) rotate(0 91.1782064608667 0.7292259104671075)"><path d="M-0.9 -0.3 C29.63 0.09, 152.54 1.28, 183.25 1.38 M0.83 -1.5 C31.17 -0.82, 151.85 2.53, 182.13 2.96" stroke="#000000" stroke-width="1" fill="none"></path></g></g><g stroke-linecap="round"><g transform="translate(1258.4743186607975 284.8469937722523) rotate(0 92.40350834968467 0.8201708125536982)"><path d="M0.81 -0.79 C31.25 -0.53, 152.3 2.06, 182.76 2.43 M-0.23 1.41 C30.58 1.29, 154.54 0.66, 185.03 0.9" stroke="#000000" stroke-width="1" fill="none"></path></g></g><g stroke-linecap="round"><g transform="translate(1291.8146840781365 502.95210190171304) rotate(0 92.14851586519228 0.5555871194260362)"><path d="M-0.45 0.23 C29.8 0.42, 151.81 1.86, 182.57 1.85 M1.52 -0.69 C32.04 -0.92, 154.4 -0.24, 184.74 0.02" stroke="#000000" stroke-width="1" fill="none"></path></g></g><g stroke-linecap="round" transform="translate(895.134224567385 312.0108693937568) rotate(0 87.9852294723712 16.428925161155178)"><path d="M0.59 0.59 C54.51 -1.43, 110.89 -1.94, 174.6 0.01 M0.4 0.59 C69.18 0.16, 140.16 0.27, 175.54 -0.24 M175.94 0.71 C176.07 13.33, 174.43 23.17, 176.72 34.85 M176.04 -0.47 C175.97 10.72, 175.43 21.78, 175.62 33.29 M175.64 33.43 C126.94 32.18, 77.77 30.42, -0.51 34.17 M175.1 31.99 C128.11 32.15, 81.09 32.11, 0.49 33.67 M-1.68 32.69 C0.07 25.37, 0.62 15.17, 1.63 -0.04 M0.86 32.23 C0.88 25.62, -0.3 19.89, -0.95 -0.04" stroke="#000000" stroke-width="1" fill="none"></path></g><g stroke-linecap="round" transform="translate(934.7866740557934 786.3292082261557) rotate(0 87.9852294723712 16.428925161155178)"><path d="M1.26 -1.63 C63.96 1.68, 128.74 -0.21, 174.36 0.43 M-0.28 0.99 C44.27 -1.89, 89.81 -2.13, 174.99 -0.81 M174.77 -1.1 C174.75 9.3, 176.92 13.39, 177.2 31.28 M175.24 -0.15 C175.92 10.93, 176.22 21.29, 176.78 33.47 M175.43 33.15 C129.7 30.23, 85.24 30.47, 1.54 34.66 M175.52 32.69 C121.38 32.83, 67.95 31.34, -0.82 32.1 M1.42 32.47 C1.9 22.68, -1.29 10.37, -0.32 0 M-0.45 33.54 C0.53 21.92, 0.89 11.64, -0.22 0.91" stroke="#000000" stroke-width="1" fill="none"></path></g><g stroke-linecap="round" transform="translate(1446.7463137396562 1687.7271943486053) rotate(0 64.31516647395642 12.00916407292732)"><path d="M-1.19 0.43 C46.96 1.61, 94.97 1.49, 127.62 1.94 M-0.13 -0.85 C29.04 0.4, 57.33 -0.09, 129.21 0.57 M128.14 -0.27 C127.38 10.97, 127.81 16.89, 126.68 22.52 M129.05 0.52 C127.8 6.17, 129.27 11.96, 127.65 23.9 M129.19 24.42 C93.76 25.66, 61.61 25.79, 1.13 24.61 M127.82 24.32 C86.73 25.06, 46 24.83, -0.06 24.04 M-0.08 25.96 C1.22 16.56, -1 5.97, -0.43 -0.11 M-0.77 24.33 C0.46 15.38, 0.32 6.3, -0.03 0.52" stroke="#000000" stroke-width="1" fill="none"></path></g><g stroke-linecap="round" transform="translate(1975.2983658235926 1497.6556477641411) rotate(0 64.31516647395642 12.00916407292732)"><path d="M-0.39 0.78 C34.05 -1.16, 68.82 -0.35, 128.1 -0.89 M-0.38 -0.88 C45.86 1.21, 91.87 0.76, 127.79 -0.72 M129.95 -1.82 C129.75 5.89, 129.21 11.9, 130.55 24.73 M129.29 -0.76 C128.17 5.8, 128.43 10.63, 128.44 23.47 M127.69 24.13 C86.65 24.53, 42.91 24.22, -0.82 25.79 M127.92 24.65 C97.48 24.73, 66.98 24.13, 0.72 23.87 M-0.46 22.31 C1.3 18.34, -2.11 8.73, -0.9 -0.02 M-0.08 23.43 C-0.87 18.17, -0.79 10.06, -0.11 0.43" stroke="#000000" stroke-width="1" fill="none"></path></g><g stroke-linecap="round" transform="translate(1220.9397639255724 1689.7223240948401) rotate(0 64.31516647395654 12.00916407292732)"><path d="M0.52 -1.8 C27.57 -0.74, 56.38 -0.78, 127.96 -0.07 M-0.51 0.99 C30.71 -1.86, 60.4 -0.77, 129.6 0.4 M127.4 0.51 C128.77 6.09, 129.28 13.9, 130.22 23.68 M128.78 0.52 C128.47 7.43, 128.06 16.91, 129.21 24.58 M129.98 22.28 C85.64 21.83, 44.18 23.58, 0.99 24.43 M128.82 23.76 C84.69 23.74, 42.28 22.7, -0.57 24.76 M-1.84 24.34 C1.48 20, -1.45 12.72, 0.62 0.36 M-0.01 23.29 C-0.01 16.26, -0.05 5.83, -0.91 -0.87" stroke="#000000" stroke-width="1" fill="none"></path></g><g stroke-linecap="round" transform="translate(982.7600947676315 1684.9247906418682) rotate(0 64.31516647395642 12.00916407292732)"><path d="M-1.56 1.21 C42.63 1.21, 81.06 -0.62, 130.35 1.68 M-0.03 0.85 C50.23 -0.08, 98.23 1.07, 128.47 -0.61 M127.98 -1.24 C127.36 9.45, 130.16 17.66, 129.02 22.78 M128.09 0.34 C128.62 7.2, 128.09 15.84, 128.72 23.24 M127.65 22.08 C95.15 24.65, 62.23 23.6, 1.96 24.81 M128.34 23.42 C81.67 25.37, 33.54 24.47, 0.38 24.32 M1.12 24.43 C-2.03 19.82, 1.18 11.92, -1.54 -1.76 M0.18 23.74 C-0.28 15.58, 0.34 8.89, 0.24 -0.5" stroke="#000000" stroke-width="1" fill="none"></path></g><g stroke-linecap="round" transform="translate(1318.7848280894405 763.8721850198067) rotate(0 87.9852294723712 16.428925161155178)"><path d="M-1.43 -1.46 C54.9 0.97, 112.98 0.76, 177.52 -1.5 M0.04 0.82 C41.49 0.27, 84.9 1.46, 175.38 -0.81 M176.35 -0.08 C176.81 8.21, 177.17 14.19, 177.47 32.68 M175.28 0.21 C176.86 8.61, 175.98 15.23, 176.19 32.11 M174.51 34.62 C113.26 30.88, 45.36 32.01, -0.91 34.54 M176.74 31.96 C126.82 32.78, 78.52 32.32, 0.92 31.91 M0.88 32.07 C0.34 26.49, 1.17 19.53, -1.52 0.4 M0.79 32.11 C0.69 19.91, -0.75 6.77, -0.02 -0.49" stroke="#000000" stroke-width="1" fill="none"></path></g><g stroke-linecap="round" transform="translate(1150.9346865642628 984.279769270646) rotate(0 87.9852294723712 16.428925161155178)"><path d="M-0.55 0.14 C38.55 -1.24, 77.04 -0.47, 176.78 -0.4 M-0.53 0.54 C54.92 -1.2, 109.02 -1.68, 175.6 -0.91 M177.85 -0.18 C175.84 13.05, 177.32 26.71, 177.28 31.9 M175.15 -0.24 C176.68 11.6, 176.09 22.16, 176.72 32.9 M174.28 34.29 C107.44 30.34, 36.24 31.93, 1.2 31.27 M175.52 31.94 C140.82 32.69, 103.44 32.91, -0.4 32.56 M0.72 33.6 C-0.93 26.48, -1.61 17.5, -0.37 0.83 M-0.58 33 C-0.14 22.58, 0.17 12.49, -0.8 0.27" stroke="#000000" stroke-width="1" fill="none"></path></g><g stroke-linecap="round" transform="translate(1253.5325739991629 305.17625426330335) rotate(0 87.9852294723712 16.428925161155178)"><path d="M-1.38 1.89 C65.61 1.43, 129.64 0.56, 176.7 0.26 M-0.91 0.07 C66.53 0.46, 131.84 0.81, 176.77 -0.54 M174.57 0.18 C177.45 7.29, 174.74 13.36, 174.56 34.19 M174.98 0.93 C174.97 8.14, 175.78 14.51, 175.16 33.51 M174.02 32.13 C127.24 32.37, 80.14 32.22, -0.75 34.6 M176.15 32.24 C131.25 33.91, 83.86 34.72, 0.27 32.54 M1.57 30.89 C0.13 23.17, -0.58 15.28, 0.63 0.53 M-0.67 33.44 C-0.07 22.85, -0.64 10.78, 0.36 -0.63" stroke="#000000" stroke-width="1" fill="none"></path></g><g stroke-linecap="round" transform="translate(1286.8729394165018 523.2813623927641) rotate(0 87.98522947237132 16.428925161155178)"><path d="M-1.69 0.92 C64.08 -2.24, 125.58 -1.01, 174.65 1.11 M-0.12 -0.58 C68.7 -0.68, 138.25 -1.19, 175.04 0.46 M175.25 -0.45 C176.12 11.36, 176.27 20.85, 174.82 33.53 M175.3 0.77 C176.17 10.92, 174.86 22.79, 176.34 31.93 M175.29 34.31 C118.36 35.8, 59.85 34.9, 0.2 33.16 M175.57 33.83 C133.86 34.32, 92.84 34.32, 0.46 33.35 M-1.62 34.82 C0.85 19.36, 0.64 9.86, 0.83 -0.35 M0.8 33.5 C0.28 22.53, 0.88 13.09, 0.13 -0.57" stroke="#000000" stroke-width="1" fill="none"></path></g><g transform="translate(1261.0352285096521 187.57603682080332) rotate(0 62 12.5)"><text x="0" y="18" font-family="Virgil, Segoe UI Emoji" font-size="20px" fill="#000000" text-anchor="start" style="white-space: pre;" direction="ltr">View Cinemas</text></g><g stroke-linecap="round"><g transform="translate(911.0761027787157 471.0415978397232) rotate(0 116.54342404465388 2.830731389270099)"><path d="M-1.13 0.93 C37.83 1.73, 194.97 3.43, 234.22 4.08 M0.48 0.37 C39.29 1.39, 194.65 4.32, 233.57 5.29" stroke="#000000" stroke-width="1" fill="none"></path></g></g><g stroke-linecap="round"><g transform="translate(915.1071092414913 498.41126058108364) rotate(0 106.76743239360019 1.6195764691650538)"><path d="M-0.73 0.01 C34.81 0.6, 178.42 3.85, 214.27 4.26 M1.08 -1.02 C36.47 -0.84, 178.35 1.83, 213.86 2.55" stroke="#000000" stroke-width="1" fill="none"></path></g></g><g stroke-linecap="round" transform="translate(912.1367236167528 528.243104146787) rotate(0 98.00730939111895 18.01281768090979)"><path d="M1.88 -1.43 C69.44 -0.65, 140.67 -0.92, 194.45 -1.02 M-0.35 -0.34 C44.62 0.85, 89.64 -0.22, 195.44 -0.11 M197.08 -0.93 C194.71 10.93, 194.6 20.4, 196.67 36.08 M195.51 0.64 C196.69 11.89, 195.82 24.99, 196.26 36.92 M196.91 37.41 C123.88 37.09, 49.41 38.41, 1.24 37.65 M196.87 36.37 C141.3 35.43, 86.15 36.64, 0.99 35.42 M1.16 34.51 C0.77 24.12, -1.2 16.43, 1.11 -1.98 M0.16 36.36 C0.43 25.41, -0.16 15.21, -0.73 0.51" stroke="#000000" stroke-width="1" fill="none"></path></g><g stroke-linecap="round" transform="translate(1331.2590322077435 1263.8331014003375) rotate(0 138.17120274683475 21.13708405750299)"><path d="M0.95 -0.21 C83.58 0.73, 170.36 -1.79, 275.14 -1.06 M-0.1 0.62 C61.16 -1.99, 122.39 -1.65, 275.59 -0.69 M275.41 1.65 C276.74 14.28, 276.93 26.19, 275.42 43.8 M277.2 -0.54 C276.44 10.94, 276.89 22.9, 276.13 41.75 M275.51 43.18 C213.32 44.44, 150.28 43.76, -0.41 43.15 M277.07 42.6 C168.57 41.59, 60.97 41.76, 0.3 41.98 M-1.67 41.51 C1.37 30.26, 0.59 14.29, 0.5 0.55 M0.93 41.57 C0.57 29.83, -0.53 17.36, 0.19 -0.19" stroke="#000000" stroke-width="1" fill="none"></path></g><g stroke-linecap="round" transform="translate(1466.5335267812366 1273.2873881992205) rotate(0 10.726705849258906 6.799267160249315)"><path d="M8.42 -0.71 C10.41 -1.13, 13.2 -0.56, 15.29 0.35 C17.39 1.26, 19.94 3.44, 20.98 4.77 C22.02 6.1, 22.07 7, 21.55 8.34 C21.04 9.67, 19.92 11.96, 17.89 12.76 C15.86 13.57, 11.94 13.39, 9.36 13.18 C6.78 12.96, 3.89 12.49, 2.4 11.47 C0.91 10.45, 0.51 8.47, 0.44 7.05 C0.37 5.64, 0.44 4.28, 1.98 2.96 C3.53 1.65, 8.02 -0.49, 9.7 -0.83 C11.39 -1.17, 11.92 0.61, 12.09 0.92 M5.61 2.11 C7.4 1.57, 10.86 1.23, 12.97 1.57 C15.08 1.91, 16.95 3.25, 18.24 4.15 C19.53 5.04, 20.9 5.69, 20.7 6.95 C20.5 8.21, 18.56 10.7, 17.07 11.72 C15.57 12.75, 13.77 12.76, 11.73 13.11 C9.7 13.45, 6.7 14.44, 4.88 13.81 C3.05 13.17, 1.42 10.79, 0.77 9.31 C0.12 7.83, -0.08 6.11, 0.99 4.92 C2.06 3.73, 6.39 2.86, 7.18 2.16 C7.96 1.45, 5.65 0.88, 5.7 0.71" stroke="#000000" stroke-width="1" fill="none"></path></g><g stroke-linecap="round"><g transform="translate(1483.494375128707 1284.7747020841794) rotate(0 4.1759585535605765 6.376598179775442)"><path d="M0.51 -0.61 C2.05 1.26, 7.57 9.93, 9.04 12.33 M-0.69 1.69 C0.67 4.18, 6.32 11.7, 7.84 13.36" stroke="#000000" stroke-width="1" fill="none"></path></g></g><g transform="translate(912.2394028768638 1279.9321090526005) rotate(0 132.2234886411294 22.48698786413763)"><text x="0" y="31.97397572827532" font-family="Virgil, Segoe UI Emoji" font-size="35.97918058262024px" fill="#000000" text-anchor="start" style="white-space: pre;" direction="ltr">Manage Movies</text></g><g stroke-linecap="round" transform="translate(987.7816835318613 1392.4395427208783) rotate(0 84.62748529757232 105.49453646683673)"><path d="M-0.52 -1.7 C42.2 -1.61, 87.59 -1.34, 170.53 0.7 M0.11 -0.82 C61.34 2.05, 123.83 1.44, 168.41 -0.39 M168.81 0.09 C170.88 78.69, 167.59 155.78, 168.68 211.91 M169.18 0.07 C170.06 77.54, 170.16 155.18, 169.51 211.11 M168.8 212.19 C103.25 210.33, 37.96 212.01, -0.28 210.75 M169.09 210.3 C101.83 210.26, 36.49 211.47, 0.75 210.72 M0.37 210.78 C0.11 152.06, -1.93 90.88, -0.4 0.16 M-0.23 210.23 C-0.42 140.78, -0.79 69.58, 0.43 -0.16" stroke="#000000" stroke-width="1" fill="none"></path></g><g stroke-linecap="round" transform="translate(1198.9383393507992 1396.720424993006) rotate(0 84.62748529757232 105.49453646683673)"><path d="M-0.46 1.2 C63.33 -1.92, 127.37 -0.24, 168.97 -0.24 M-0.17 -0.69 C65.69 -0.25, 133.47 0.95, 170.01 -0.27 M169.62 -0.21 C170.97 60.14, 168.92 118.05, 168.86 211.15 M169.02 -0.76 C170.92 71.53, 170.56 142.07, 169.69 210.83 M170.79 211.85 C119.48 210.14, 67.39 211.21, 1.59 212.51 M169.71 211.09 C131.13 209.8, 93.43 209.86, 0.91 210.62 M-0.08 212.29 C0.09 132.4, 0.13 56.73, 1.06 -0.06 M0.24 211.47 C0.21 134.65, -0.64 58.29, -0.55 -0.29" stroke="#000000" stroke-width="1" fill="none"></path></g><g stroke-linecap="round" transform="translate(1436.6629448993683 1378.5953863938198) rotate(0 84.6274852975722 105.49453646683673)"><path d="M1.2 -1.34 C63.89 -1.57, 130.74 0.11, 169.01 1.86 M-0.69 -0.86 C48.09 0.63, 97.88 1.04, 168.99 -0.18 M169.05 0.91 C171.23 71.24, 169.59 144.34, 169.41 211.62 M168.5 0.62 C169.46 75.41, 169.12 150.74, 169.1 211 M170.12 212.29 C126.75 212.56, 85.81 213.88, 1.52 209.45 M169.36 210.63 C124.65 211.47, 80.61 212.66, -0.37 211.67 M1.3 209.44 C0.55 164.75, 2.47 122.59, -0.06 1.09 M0.48 211.06 C1.15 148.47, 1.08 86.96, -0.29 0.46" stroke="#000000" stroke-width="1" fill="none"></path></g><g stroke-linecap="round"><g transform="translate(1455.2208042510952 1630.2552279396473) rotate(0 59.25126949644687 0.5437304679875297)"><path d="M-0.31 -0.6 C19.3 -0.29, 99 1.17, 118.81 1.47 M1.73 1.69 C21.1 1.72, 98.64 0.3, 117.97 -0.1" stroke="#000000" stroke-width="1" fill="none"></path></g></g><g stroke-linecap="round"><g transform="translate(1983.7728563350315 1440.1836813551836) rotate(0 58.55426807494405 0.28196802171055424)"><path d="M-0.23 0.47 C19.52 0.42, 98.94 -0.23, 118.92 -0.28 M-1.82 -0.33 C17.78 -0.23, 97.93 0.6, 118.14 0.9" stroke="#000000" stroke-width="1" fill="none"></path></g></g><g stroke-linecap="round"><g transform="translate(1009.4775369032764 1622.06740309335) rotate(0 59.5955391832772 0.5748135675816002)"><path d="M0.76 -0.58 C20.69 -0.29, 99.83 1.16, 119.49 1.26 M-0.3 1.73 C19.55 1.72, 99.29 -0.32, 119 -0.43" stroke="#000000" stroke-width="1" fill="none"></path></g></g><g stroke-linecap="round"><g transform="translate(1241.3552604059319 1624.725292496757) rotate(0 59.43207888699192 1.1751726077321791)"><path d="M-0.58 0.88 C19.4 0.83, 99.65 0.67, 119.44 0.48 M1.32 0.29 C21.26 0.39, 99.63 1.98, 118.94 2.06" stroke="#000000" stroke-width="1" fill="none"></path></g></g><g transform="translate(954.2550510386443 1369.6141309163067) rotate(0 97.86027087177479 10.47334002641071)"><text x="0" y="16.946680052821343" font-family="Helvetica, Segoe UI Emoji" font-size="18.328345046218686px" fill="#000000" text-anchor="start" style="white-space: pre;" direction="ltr">Add Movie to Screening</text></g><g transform="translate(999.7613243017793 1892.3764180905282) rotate(0 140 15.5)"><text x="0" y="22" font-family="Virgil, Segoe UI Emoji" font-size="24.707016571769756px" fill="#0b7285" text-anchor="start" style="white-space: pre;" direction="ltr">Delete screening by ID</text></g><g transform="translate(993.910405254152 1503.5546784150747) rotate(0 78.75897523209335 10.301806886898248)"><text x="0" y="14.603613773796571" font-family="Virgil, Segoe UI Emoji" font-size="16.421091191855982px" fill="#1864ab" text-anchor="start" style="white-space: pre;" direction="ltr">Delete movie by ID</text></g><g transform="translate(1937.2268018440946 1921.0573455838125) rotate(0 161.5 15.5)"><text x="0" y="22" font-family="Virgil, Segoe UI Emoji" font-size="24.707016571769756px" fill="#000000" text-anchor="start" style="white-space: pre;" direction="ltr">add customer to screening</text></g><g transform="translate(1226.8215010547806 659.1097131949947) rotate(0 172.85941383490808 12.206473414310125)"><text x="0" y="17.41294682862027" font-family="Virgil, Segoe UI Emoji" font-size="19.457131672917875px" fill="#000000" text-anchor="start" style="white-space: pre;" direction="ltr">Create/add new screening to screen</text></g><g transform="translate(1269.5608613009995 414.0274918125017) rotate(0 106.5 15.5)"><text x="0" y="22" font-family="Virgil, Segoe UI Emoji" font-size="24.707016571769756px" fill="#000000" text-anchor="start" style="white-space: pre;" direction="ltr">Get screen by Id</text></g><g transform="translate(1000.7957032883157 1842.387800450123) rotate(0 124.5 15.5)"><text x="0" y="22" font-family="Virgil, Segoe UI Emoji" font-size="24.707016571769756px" fill="#0b7285" text-anchor="start" style="white-space: pre;" direction="ltr">Get Screening by ID</text></g><g transform="translate(1148.6260370298069 877.0264101981363) rotate(0 111 15.5)"><text x="0" y="22" font-family="Virgil, Segoe UI Emoji" font-size="24.707016571769756px" fill="#000000" text-anchor="start" style="white-space: pre;" direction="ltr">Get All Screenings</text></g><g transform="translate(943.7691068889844 1332.0838563289876) rotate(0 73.5 12.5)"><text x="0" y="18" font-family="Virgil, Segoe UI Emoji" font-size="20px" fill="#000000" text-anchor="start" style="white-space: pre;" direction="ltr">Get all Movies</text></g><g transform="translate(1005.0060115239178 1545.9513127293285) rotate(0 67.61571761269136 9.443535979426201)"><text x="0" y="12.887071958852328" font-family="Virgil, Segoe UI Emoji" font-size="15.109657567081861px" fill="#1864ab" text-anchor="start" style="white-space: pre;" direction="ltr">Get Movies by ID</text></g><g transform="translate(919.313899221328 679.8469934448364) rotate(0 101.5 12.5)"><text x="0" y="18" font-family="Virgil, Segoe UI Emoji" font-size="20px" fill="#000000" text-anchor="start" style="white-space: pre;" direction="ltr">Add movie to Cinema</text></g><g transform="translate(1232.32814091272 1343.2434869947638) rotate(0 94.5 12.5)"><text x="0" y="18" font-family="Virgil, Segoe UI Emoji" font-size="20px" fill="#000000" text-anchor="start" style="white-space: pre;" direction="ltr">Get Movie By title</text></g><g transform="translate(917.7801864067594 426.5645317019571) rotate(0 106 12.5)"><text x="0" y="18" font-family="Virgil, Segoe UI Emoji" font-size="20px" fill="#000000" text-anchor="start" style="white-space: pre;" direction="ltr">Add screen to cinema</text></g><g transform="translate(1927.385073194656 1630.0529156579305) rotate(0 88 12.5)"><text x="0" y="18" font-family="Virgil, Segoe UI Emoji" font-size="20px" fill="#000000" text-anchor="start" style="white-space: pre;" direction="ltr">get all customers</text></g><g transform="translate(1921.3199322690202 1371.8204889639792) rotate(0 145.83481848344582 16.80124636906055)"><text x="0" y="23.602492738121178" font-family="Virgil, Segoe UI Emoji" font-size="26.881994190496922px" fill="#000000" text-anchor="start" style="white-space: pre;" direction="ltr">create new customers</text></g><g transform="translate(2317.312774107932 1594.9398075328677) rotate(0 100 12.5)"><text x="0" y="18" font-family="Virgil, Segoe UI Emoji" font-size="20px" fill="#000000" text-anchor="start" style="white-space: pre;" direction="ltr">get Customer by ID</text></g><g transform="translate(1907.0295372547666 1285.901493353254) rotate(0 183.1952256078639 23.83027324980344)"><text x="0" y="37.66054649960684" font-family="Helvetica, Segoe UI Emoji" font-size="41.70297818715601px" fill="#000000" text-anchor="start" style="white-space: pre;" direction="ltr">Manage Customers</text></g><g stroke-linecap="round"><g transform="translate(1417.3552697959708 310.23635821087964) rotate(0 -1.9596721579387122 10.906752683585857)"><path d="M0.58 0.3 C0.04 3.88, -3.02 18.96, -3.78 22.4 M-0.58 -0.59 C-1.18 2.6, -3.82 17.05, -4.49 20.82" stroke="#000000" stroke-width="1" fill="none"></path></g><g transform="translate(1417.3552697959708 310.23635821087964) rotate(0 -1.9596721579387122 10.906752683585857)"><path d="M-6.07 10.5 C-4.86 13, -5.7 14.62, -3.68 21.2 M-6.27 9.58 C-5.49 13.54, -5.29 16.44, -4.33 20.5" stroke="#000000" stroke-width="1" fill="none"></path></g><g transform="translate(1417.3552697959708 310.23635821087964) rotate(0 -1.9596721579387122 10.906752683585857)"><path d="M1.26 11.82 C0.63 14.03, -2.05 15.31, -3.68 21.2 M1.06 10.91 C-0.2 14.53, -2.05 17.06, -4.33 20.5" stroke="#000000" stroke-width="1" fill="none"></path></g></g><g stroke-linecap="round"><g transform="translate(1293.3228177994647 1326.2711919830062) rotate(0 40.089384832483574 -19.179384700565492)"><path d="M-0.25 -0.84 C13.06 -7.24, 67.16 -31.77, 80.43 -37.87 M1.82 1.34 C14.97 -5.47, 67.07 -32.94, 79.82 -39.7" stroke="#000000" stroke-width="1" fill="none"></path></g><g transform="translate(1293.3228177994647 1326.2711919830062) rotate(0 40.089384832483574 -19.179384700565492)"><path d="M58.3 -16.38 C67.53 -25.88, 75.29 -32.83, 79.88 -41.25 M59.41 -17.15 C64.66 -24.49, 70.1 -30.11, 80.68 -40.24" stroke="#000000" stroke-width="1" fill="none"></path></g><g transform="translate(1293.3228177994647 1326.2711919830062) rotate(0 40.089384832483574 -19.179384700565492)"><path d="M48.71 -34.52 C61.36 -37.69, 72.46 -38.33, 79.88 -41.25 M49.83 -35.29 C57.72 -37.51, 65.85 -38.05, 80.68 -40.24" stroke="#000000" stroke-width="1" fill="none"></path></g></g><g stroke-linecap="round"><g transform="translate(1585.7014211005053 1268.0924261870505) rotate(0 0.26974545483926704 16.37552395895443)"><path d="M-1.14 -1.07 C-0.7 4.35, 1.5 27.11, 1.68 32.85 M0.47 0.98 C0.9 6.49, 0.87 28.25, 1.18 33.82" stroke="#000000" stroke-width="1" fill="none"></path></g><g transform="translate(1585.7014211005053 1268.0924261870505) rotate(0 0.26974545483926704 16.37552395895443)"><path d="M-6.53 19.22 C-5.14 20.28, -3.04 24.02, -0.12 32.23 M-5.09 18.2 C-3.13 21.28, -1.86 24.57, 1.37 34.33" stroke="#000000" stroke-width="1" fill="none"></path></g><g transform="translate(1585.7014211005053 1268.0924261870505) rotate(0 0.26974545483926704 16.37552395895443)"><path d="M5.08 18.94 C3.89 19.95, 3.42 23.75, -0.12 32.23 M6.52 17.92 C6.01 21.13, 4.82 24.48, 1.37 34.33" stroke="#000000" stroke-width="1" fill="none"></path></g></g><g stroke-linecap="round" transform="translate(929.7969850655452 1779.9020248314355) rotate(0 324.11117140377826 203.7368590393687)"><path d="M-0.07 0.44 C178.99 -2.01, 356.59 -1.8, 647.85 -0.74 M0.19 0.12 C157.7 0.85, 316.04 0.86, 647.9 -0.22 M648.46 -0.12 C646.81 82.57, 647.25 162.14, 648.44 407.49 M648.06 0.3 C649.88 125.84, 650.37 251.14, 647.86 407.44 M647.5 406.99 C477.64 409.7, 307.77 409.71, -0.52 407.59 M648.3 407.37 C440.84 409.37, 233.86 409.31, -0.02 407.43 M-0.97 407.78 C0.94 260.5, 2.32 112.26, 0.24 0.83 M0.24 407.07 C2.67 249.02, 2.06 89.54, -0.5 0.18" stroke="#000000" stroke-width="1" fill="none"></path></g><g stroke-linecap="round"><g transform="translate(1926.9986759523322 1677.494961149011) rotate(0 180.8360932408532 0.25734979588037277)"><path d="M0.42 -1.14 C60.98 -1.17, 302.35 -0.29, 362.49 -0.01 M-0.82 0.88 C59.74 1.04, 301.78 1.95, 361.97 1.55" stroke="#000000" stroke-width="1" fill="none"></path></g></g><g stroke-linecap="round"><g transform="translate(1923.5352875416543 1704.7527728251384) rotate(0 180.4594039843862 -0.8274667045815249)"><path d="M0.34 -0.45 C60.77 -0.7, 301.58 -0.86, 361.85 -0.97 M-0.93 -1.73 C59.42 -1.9, 300.61 -0.14, 360.99 0.09" stroke="#000000" stroke-width="1" fill="none"></path></g></g><g stroke-linecap="round"><g transform="translate(1924.1460624859392 1730.7912046239007) rotate(0 181.27988851937266 -0.729784550272484)"><path d="M-0.45 0.16 C59.59 0.15, 300.6 0.4, 360.78 0.24 M1.52 -0.8 C61.88 -1.22, 302.77 -1.89, 363.01 -1.73" stroke="#000000" stroke-width="1" fill="none"></path></g></g><g stroke-linecap="round"><g transform="translate(1916.7376215308427 1762.7113511252492) rotate(0 180.38847654147776 0.03422426217230168)"><path d="M0.16 -0.91 C60.44 -1.03, 301.85 -1.2, 361.99 -1.14 M-1.21 1.22 C58.9 1.26, 300.41 -0.06, 361.19 -0.17" stroke="#000000" stroke-width="1" fill="none"></path></g></g><g stroke-linecap="round"><g transform="translate(1917.5564083365603 1805.864138143977) rotate(0 180.91826227995352 -0.2002652680639585)"><path d="M-0.91 0.3 C59.26 0.14, 300.25 -0.86, 360.61 -0.78 M0.81 -0.59 C61.38 -0.62, 302.85 0.46, 362.75 0.38" stroke="#000000" stroke-width="1" fill="none"></path></g></g><g stroke-linecap="round" transform="translate(2314.6682302580907 1632.2631405215552) rotate(0 114.66833182061919 19.667880139626618)"><path d="M-1.05 -0.71 C68.62 -1.95, 134.2 0.61, 229.27 1.05 M-0.07 0.03 C57.66 -0.38, 115.18 0.06, 229.68 0.75 M227.66 0.46 C229.28 11.71, 228.32 22.56, 230.04 40.87 M230.26 0.93 C228.72 11.46, 230.12 23.58, 229.54 38.58 M230.95 39.97 C140.36 40.04, 52.19 40.11, 0.82 38.56 M229.32 38.5 C152.28 38.51, 76.17 38.06, 0.58 38.76 M-1.81 38.17 C-1.72 25.53, 0.12 9.95, 1.64 -0.64 M-0.85 38.59 C0.19 27.13, -1.19 14.82, 0.6 0.96" stroke="#000000" stroke-width="1" fill="none"></path></g><g stroke-linecap="round" transform="translate(2490.043747914497 1642.4628945545778) rotate(0 7.704322216108039 8.572200410412734)"><path d="M7.45 0.54 C8.97 0.37, 11.71 1.36, 13.09 2.31 C14.46 3.26, 15.4 4.48, 15.7 6.21 C16 7.95, 15.81 11, 14.91 12.71 C14.01 14.42, 12.04 15.83, 10.3 16.45 C8.56 17.06, 5.98 16.87, 4.45 16.4 C2.93 15.93, 2 15, 1.16 13.63 C0.33 12.26, -0.64 9.91, -0.54 8.19 C-0.43 6.46, 0.4 4.5, 1.79 3.27 C3.18 2.04, 6.73 1.39, 7.8 0.8 C8.87 0.22, 8.29 -0.43, 8.2 -0.27 M7.13 0.24 C8.58 -0.28, 12.2 -0.1, 13.34 0.84 C14.49 1.77, 13.72 3.82, 13.99 5.87 C14.27 7.91, 15.85 11.23, 15.01 13.1 C14.17 14.97, 10.43 16.24, 8.93 17.08 C7.44 17.91, 7.24 18.83, 6.05 18.1 C4.87 17.38, 2.66 14.5, 1.83 12.73 C1.01 10.96, 0.83 9.32, 1.08 7.49 C1.33 5.66, 2.35 2.98, 3.35 1.75 C4.35 0.53, 6.55 0.54, 7.06 0.15 C7.57 -0.24, 6.26 -0.78, 6.4 -0.61" stroke="#000000" stroke-width="1" fill="none"></path></g><g stroke-linecap="round"><g transform="translate(2503.9297990233717 1659.3680307103068) rotate(0 3.553691417926757 5.665834357688709)"><path d="M-0.81 1.18 C0.63 2.81, 6.56 9.28, 7.92 10.58 M0.97 0.75 C2.27 1.99, 5.25 7.43, 6.7 8.95" stroke="#000000" stroke-width="1" fill="none"></path></g></g><g stroke-linecap="round" transform="translate(1935.6132361447799 1967.3845949356637) rotate(0 151.5007769398685 17.397681720884066)"><path d="M-0.62 0.96 C76.49 1.51, 151.71 0.81, 303.6 -0.7 M0.24 0.03 C105.74 0.73, 210.89 0.7, 303.44 0.25 M302.93 0.04 C302.54 13.04, 301.33 29.15, 302.32 33.27 M302.56 -0.65 C301.73 9.22, 303.3 18.03, 303.99 33.83 M301.87 34.58 C220.21 36.86, 134.6 34.59, 1.4 34.56 M303 34.7 C217.42 32.96, 133.37 32.94, -0.21 35.3 M1.24 36.47 C-0.2 23.79, -1.02 15.1, -0.67 -1 M0.39 35.44 C0.61 22.78, -0.02 9.04, -0.39 -0.31" stroke="#000000" stroke-width="1" fill="none"></path></g><g stroke-linecap="round" transform="translate(1929.6669660369203 2018.1610075937292) rotate(0 158.54448893735707 18.645752889481855)"><path d="M-1.1 -0.21 C89.18 -0.24, 175.63 -2.44, 318.44 -0.23 M0 -0.09 C88.36 2.14, 178.2 2.11, 316.89 0.49 M318.33 1.67 C317.2 10.66, 316.38 23.62, 316.42 36.29 M317.48 0.64 C317.99 14.42, 317.36 27.12, 316.7 36.98 M316.89 37.73 C225.94 37.98, 133.76 37.33, 0.22 37.9 M316.88 37.55 C215.72 36.51, 116.09 36.82, -0.59 37.75 M1.32 38.54 C0.46 24.67, 0.62 12.61, -1.06 -1.52 M-0.38 36.33 C-0.09 27.57, 1.02 16.47, 0.89 0.14" stroke="#000000" stroke-width="1" fill="none"></path></g><g stroke-linecap="round" transform="translate(1922.3865508867666 2076.7557971125507) rotate(0 160.45963262710188 16.86689283308965)"><path d="M-1.06 1.31 C101.43 1.67, 205.39 2.39, 322.01 -0.64 M0.45 -0.2 C91.92 1.01, 183.05 0.51, 320.78 0.44 M320.64 -0.38 C319.46 7.9, 322.54 14.9, 319.46 32.35 M319.96 -0.67 C320.8 8.83, 320.04 15.48, 321.3 33.29 M320.63 34.92 C217.77 35.17, 113.21 35.52, 1.32 33.63 M321.4 34.14 C255.66 33.31, 189.99 34.01, 0.2 34.11 M-1.89 33.71 C0.64 25.09, -0.44 20.1, -0.38 1.55 M-0.92 33.59 C0.46 26.49, -0.26 19.24, -0.2 0.72" stroke="#000000" stroke-width="1" fill="none"></path></g><g stroke-linecap="round" transform="translate(2328.540469568826 2005.8596164779528) rotate(0 49.30239757101481 14.406614609934422)"><path d="M-1.89 -0.03 C21.33 -2.08, 40.71 -0.07, 98.23 1.55 M-0.92 -0.14 C20.22 -0.38, 39.54 -0.78, 98.41 0.72 M100.21 -0.1 C98.54 10.19, 100.02 23.89, 99.4 30.1 M99.42 -0.57 C97.96 5.83, 99.24 11.05, 99.59 29.29 M98.05 28.55 C74.33 28.02, 47.41 30.14, 0.28 27.51 M97.91 28.67 C59.04 28.74, 21.16 28.53, -0.7 28.68 M0.83 30.62 C0.31 23.94, 0.06 17.12, -0.49 -1.26 M0.38 29.15 C-0.74 17.65, -0.73 7.03, -0.73 0.98" stroke="#000000" stroke-width="1" fill="none"></path></g><g stroke-linecap="round" transform="translate(2277.369551656319 1421.9546308857512) rotate(0 124.49868547902815 13.811270316867422)"><path d="M-0.4 -1.03 C92.6 -0.11, 184.36 -0.13, 249.55 -1.03 M-0.6 0.81 C65.36 0.1, 131.03 0.18, 248.9 -0.17 M248.2 -1.05 C248.01 5.85, 248.78 13.3, 247.24 28.34 M249.05 0.3 C249.6 10.9, 248.35 20.72, 249.9 28.41 M249.11 28.18 C171.11 28.5, 95.93 26.87, -0.27 29.11 M248.26 26.86 C153.67 29.45, 57.3 28.68, -0.81 27.92 M-0.07 27.98 C-0.54 17.28, -0.39 6.27, -0.2 0.11 M-0.22 27.33 C1.08 19.48, 1.02 12.06, -0.27 0.29" stroke="#000000" stroke-width="1" fill="none"></path></g><g stroke-linecap="round" transform="translate(2284.5352016415436 1467.7889686290814) rotate(0 123.63077391925663 13.466974822081966)"><path d="M0.49 0.78 C85.17 -1.36, 168.58 1.39, 248.56 0.13 M0.28 -0.59 C79.73 0.02, 158.39 -0.28, 248.01 0.69 M245.4 0.88 C248.17 6.94, 246.27 13.49, 247.98 28.3 M247.44 -0.3 C246.94 7.36, 246.52 15.07, 247.32 26.8 M246.78 28.52 C183.02 27.99, 119.96 26.06, 0.47 28.23 M247.56 27.19 C176.59 28.21, 106.73 29.37, 0.5 26.61 M0.31 26.81 C0.97 19.86, -1.13 11.83, -1.5 1.96 M-0.95 27.83 C0.3 20.23, -0.42 15.35, 0.8 -0.64" stroke="#000000" stroke-width="1" fill="none"></path></g><g stroke-linecap="round" transform="translate(2282.670267711455 1506.371582513491) rotate(0 130.59199845445255 12.857284883399188)"><path d="M-1.19 1.56 C93.96 -2.57, 189.22 -3.2, 262.62 0.24 M0.63 -0.51 C66.11 -2.36, 132.45 -1.62, 260.6 -0.16 M259.62 0.96 C260.72 6.51, 261.45 12.86, 261.05 25.39 M261.06 0.47 C261.94 8.7, 261.2 15.55, 261.72 25.88 M260.87 27 C194.67 23.3, 132.35 24.79, 1.43 25.27 M260.99 26.24 C206.71 23.8, 152.24 24.41, 0.48 25.71 M1.29 24.48 C1.84 15.39, 0.05 6.22, 1.35 -1.17 M0.65 26.15 C-0.73 19.41, -0.1 12.13, -0.78 -0.23" stroke="#000000" stroke-width="1" fill="none"></path></g><g stroke-linecap="round"><g transform="translate(1150.7557916670012 1659.970410124708) rotate(0 25.92323022054063 76.63678313113576)"><path d="M0.72 -0.01 C9.42 25.43, 43.81 127.44, 52.21 153.27 M-0.37 -1.06 C8.24 24.45, 43.22 128.66, 51.66 154.34" stroke="#000000" stroke-width="1" fill="none"></path></g><g transform="translate(1150.7557916670012 1659.970410124708) rotate(0 25.92323022054063 76.63678313113576)"><path d="M33.01 132.08 C37.24 137.27, 45.6 143.57, 53.31 153.34 M32.44 130.33 C38.45 137.27, 44.5 144.92, 50.94 154.46" stroke="#000000" stroke-width="1" fill="none"></path></g><g transform="translate(1150.7557916670012 1659.970410124708) rotate(0 25.92323022054063 76.63678313113576)"><path d="M52.48 125.6 C50.91 132.85, 53.44 141.09, 53.31 153.34 M51.91 123.85 C52.19 132.82, 52.53 142.37, 50.94 154.46" stroke="#000000" stroke-width="1" fill="none"></path></g></g></svg>